<svg width="30" height="30" viewBox="0 0 30 30" fill="none" xmlns="http://www.w3.org/2000/svg">
<path d="M28.3333 15C27.8889 15 27.4928 14.84 27.145 14.52C26.7972 14.2 26.5967 13.8044 26.5433 13.3333C26.1822 10.75 25.0917 8.54833 23.2717 6.72833C21.4517 4.90833 19.25 3.81833 16.6667 3.45833C16.1944 3.40278 15.7983 3.20833 15.4783 2.875C15.1583 2.54167 14.9989 2.13889 15 1.66667C15 1.19444 15.1667 0.798333 15.5 0.478333C15.8333 0.158333 16.2222 0.0266666 16.6667 0.0833333C20.1667 0.472222 23.1528 1.90278 25.625 4.375C28.0972 6.84722 29.5278 9.83333 29.9167 13.3333C29.9722 13.7778 29.84 14.1667 29.52 14.5C29.2 14.8333 28.8044 15 28.3333 15ZM21.375 15C21.0139 15 20.6944 14.875 20.4167 14.625C20.1389 14.375 19.9306 14.0417 19.7917 13.625C19.5694 12.8194 19.1456 12.1039 18.52 11.4783C17.8944 10.8528 17.1794 10.4294 16.375 10.2083C15.9583 10.0694 15.625 9.86111 15.375 9.58333C15.125 9.30556 15 8.97222 15 8.58333C15 8.02778 15.1944 7.57611 15.5833 7.22833C15.9722 6.88056 16.4028 6.76278 16.875 6.875C18.4306 7.23611 19.7711 7.97944 20.8967 9.105C22.0222 10.2306 22.765 11.5706 23.125 13.125C23.2361 13.5972 23.1111 14.0278 22.75 14.4167C22.3889 14.8056 21.9306 15 21.375 15ZM28.25 30C24.6667 30 21.1733 29.2011 17.77 27.6033C14.3667 26.0056 11.3528 23.8944 8.72833 21.27C6.10389 18.6456 3.99278 15.6317 2.395 12.2283C0.797223 8.825 -0.00110995 5.33222 1.15821e-06 1.75C1.15821e-06 1.25 0.166668 0.833333 0.500001 0.5C0.833334 0.166667 1.25 0 1.75 0H8.5C8.88889 0 9.23611 0.125 9.54167 0.375C9.84722 0.625 10.0278 0.944444 10.0833 1.33333L11.1667 7.16667C11.2222 7.55556 11.215 7.91 11.145 8.23C11.075 8.55 10.9156 8.83444 10.6667 9.08333L6.66667 13.1667C7.83333 15.1667 9.29167 17.0417 11.0417 18.7917C12.7917 20.5417 14.7222 22.0556 16.8333 23.3333L20.75 19.4167C21 19.1667 21.3267 18.9794 21.73 18.855C22.1333 18.7306 22.5289 18.6956 22.9167 18.75L28.6667 19.9167C29.0556 20 29.375 20.1878 29.625 20.48C29.875 20.7722 30 21.1122 30 21.5V28.25C30 28.75 29.8333 29.1667 29.5 29.5C29.1667 29.8333 28.75 30 28.25 30Z" fill="#DADADA"/>
</svg>
