<svg width="20" height="20" viewBox="0 0 20 20" fill="none" xmlns="http://www.w3.org/2000/svg">
<path d="M19.9793 5.68483L18.0414 13.4379C17.9671 13.7366 17.7949 14.0018 17.5523 14.1912C17.3096 14.3806 17.0106 14.4832 16.7028 14.4828H4.75173C4.41364 14.4828 4.08731 14.3587 3.83478 14.1338C3.58225 13.909 3.42114 13.5993 3.38207 13.2634L1.98552 2.06897H1.03448C0.760122 2.06897 0.496997 1.95998 0.302993 1.76597C0.10899 1.57197 0 1.30884 0 1.03448C0 0.760121 0.10899 0.496996 0.302993 0.302993C0.496997 0.10899 0.760122 0 1.03448 0H2.88759C3.13757 1.05419e-05 3.3791 0.0905416 3.56749 0.254851C3.75589 0.419161 3.87842 0.646133 3.91242 0.893793L4.45173 4.82759H19.3104C19.4152 4.82759 19.5186 4.85149 19.6129 4.89747C19.7071 4.94346 19.7895 5.01031 19.854 5.09296C19.9185 5.1756 19.9633 5.27186 19.9851 5.37442C20.0068 5.47698 20.0048 5.58314 19.9793 5.68483ZM4.13793 17.931C4.13793 19.0717 5.06621 20 6.2069 20C7.34759 20 8.27587 19.0717 8.27587 17.931C8.27587 16.7903 7.34759 15.8621 6.2069 15.8621C5.06621 15.8621 4.13793 16.7903 4.13793 17.931ZM16.5517 17.931C16.5517 16.7903 15.6235 15.8621 14.4828 15.8621C13.3421 15.8621 12.4138 16.7903 12.4138 17.931C12.4138 19.0717 13.3421 20 14.4828 20C15.6235 20 16.5517 19.0717 16.5517 17.931Z" fill="#181819"/>
</svg>
