<svg width="20" height="20" viewBox="0 0 20 20" fill="none" xmlns="http://www.w3.org/2000/svg">
<path d="M18.4134 1.95725C17.3781 0.695124 15.9575 0 14.413 0C13.2585 0 12.2013 0.41026 11.2704 1.21928C10.8008 1.6276 10.3752 2.12726 10 2.71033C9.62492 2.12739 9.19922 1.6276 8.72941 1.21928C7.79875 0.41026 6.74148 0 5.58699 0C4.0425 0 2.62176 0.695124 1.58645 1.95725C0.563516 3.20463 0 4.90876 0 6.7559C0 8.65704 0.630351 10.3974 1.98363 12.2329C3.19426 13.8747 4.93422 15.5415 6.94914 17.4714C7.63719 18.1306 8.41707 18.8776 9.22684 19.6734C9.4408 19.8841 9.71557 20.0001 10 20C10.2846 20 10.5592 19.884 10.7729 19.6738C11.5826 18.8778 12.363 18.1304 13.0513 17.4709C15.0659 15.5412 16.8059 13.8747 18.0165 12.2327C19.3698 10.3974 20 8.65708 20 6.75572C20 4.90876 19.4365 3.20463 18.4134 1.95725Z" fill="#181819"/>
</svg>
