<svg width="20" height="20" viewBox="0 0 20 20" fill="none" xmlns="http://www.w3.org/2000/svg">
<path d="M19.5264 17.2037L14.9282 12.5423C15.7368 11.2395 16.1649 9.73118 16.1629 8.19198C16.1629 3.66741 12.5446 0 8.08129 0C3.61803 0 0 3.66741 0 8.19198C0 12.7167 3.61786 16.3838 8.08129 16.3838C9.73211 16.3859 11.3436 15.8732 12.6971 14.9151L17.2405 19.5211C17.3905 19.6732 17.5687 19.7939 17.7649 19.8761C17.961 19.9582 18.1712 20.0004 18.3834 20C18.5957 20.0004 18.806 19.9583 19.0022 19.8761C19.1985 19.7939 19.3767 19.6733 19.5269 19.5211C19.8299 19.2137 20 18.7969 20 18.3623C19.9999 17.9277 19.8295 17.511 19.5264 17.2037ZM8.08129 13.7297C5.06453 13.7297 2.61872 11.2506 2.61872 8.19232C2.61872 5.13407 5.06453 2.65476 8.08129 2.65476C11.0982 2.65476 13.5439 5.13407 13.5439 8.19232C13.5439 11.2506 11.0982 13.7297 8.08129 13.7297Z" fill="#181819"/>
</svg>
