<svg width="31" height="31" fill="none" xmlns="http://www.w3.org/2000/svg"><path d="M28.618 13.421a4.956 4.956 0 0 0-2.302-1.395h1.172c.798 0 1.831-.45 1.831-1.255 0-.976-1.593-1.575-2.823-1.08a.237.237 0 0 0-.152.224v.73a.222.222 0 0 1-.225.226h-.192l-1.21-3.696c-.54-1.22-1.708-2.018-3.011-2.062-4.47-.15-8.943-.15-13.412 0-1.304.044-2.472.842-3.013 2.062L4.072 10.87h-.194a.22.22 0 0 1-.157-.066.23.23 0 0 1-.065-.161v-.73a.247.247 0 0 0-.041-.137.238.238 0 0 0-.11-.09C2.245 9.19.677 9.811.677 10.771c0 .686.82 1.242 1.837 1.257h1.162C1.55 12.617 0 14.602 0 16.953v3.767c0 1.78 1.394 3.23 3.123 3.248H26.87C28.606 23.95 30 22.5 30 20.72v-3.773a5.145 5.145 0 0 0-1.382-3.526zM6.13 7.521a2.507 2.507 0 0 1 2.192-1.475c3.804-.132 8.739-.156 13.354 0 .45.02.874.158 1.238.387.408.252.744.629.954 1.088l1.42 4.334c-.016 0-.032-.004-.048-.004-9.117-.385-19.9-.126-20.527.004L6.13 7.52zm.602 15.107H2.36c-.404 0-.693-.401-.576-.8l.321-1.093a.834.834 0 0 1 .794-.605h3.316c.387 0 .723.276.809.663l.25 1.14a.566.566 0 0 1-.54.695zm.482-5.642c-1.216 1.101-3.02 1.398-5.293 1.052a.377.377 0 0 1-.314-.378v-1.727c0-.22.18-.395.392-.381 1.961.118 3.786.312 5.094.787a.387.387 0 0 1 .12.647zm13.954.442-1.294 3.662a.933.933 0 0 1-.902.728h-7.947a.932.932 0 0 1-.902-.728l-1.293-3.662c-.141-.6.3-1.177.902-1.177h10.534c.6 0 1.043.577.902 1.177zm6.469 5.2h-4.373a.566.566 0 0 1-.541-.695l.25-1.14a.836.836 0 0 1 .81-.663h3.315c.365 0 .688.246.794.605l.322 1.094c.116.398-.173.799-.577.799zm.753-4.968a.377.377 0 0 1-.313.378c-2.274.346-4.078.05-5.293-1.052a.387.387 0 0 1 .12-.648c1.309-.474 3.133-.668 5.095-.786a.376.376 0 0 1 .391.38v1.728zM.17 23.117v1.927c0 .53.418.956.932.956H4.08a.944.944 0 0 0 .932-.956v-.42H3.124c-1.2-.013-2.265-.603-2.955-1.507z" fill="#6F6F6F"/><path d="M26.88 24.623h-1.89v.42c0 .53.418.956.932.956h2.977a.944.944 0 0 0 .932-.956v-1.93a3.755 3.755 0 0 1-2.952 1.51zm-15.837-3.818.007.029h7.9l.007-.029 1.262-3.572H9.781l1.262 3.572zm15.682-4.953a.996.996 0 0 0-.984 1.01c0 .558.44 1.01.984 1.01a.996.996 0 0 0 .983-1.01.996.996 0 0 0-.983-1.01zm-2.095.323c-.37 0-.669.307-.669.687 0 .38.3.687.67.687.37 0 .669-.307.669-.687 0-.38-.3-.687-.67-.687zm-21.355-.323a.996.996 0 0 0-.984 1.01c0 .557.44 1.009.984 1.009a.996.996 0 0 0 .983-1.01.996.996 0 0 0-.983-1.01zm2.094.322c-.37 0-.67.307-.67.687 0 .38.3.687.67.687.37 0 .67-.307.67-.687a.702.702 0 0 0-.196-.486.668.668 0 0 0-.474-.201z" fill="#6F6F6F"/></svg>