<svg width="31" height="31" viewBox="0 0 31 31" fill="none" xmlns="http://www.w3.org/2000/svg">
<path d="M28.6179 13.4213C27.9889 12.7497 27.1931 12.2673 26.3164 12.0261H27.4879C28.2858 12.0261 29.3193 11.5757 29.3193 10.7707C29.3193 9.79529 27.7258 9.19614 26.496 9.69018C26.4047 9.72146 26.3439 9.8151 26.3439 9.91502V10.6457C26.3439 10.7706 26.2466 10.8706 26.1188 10.8706H25.9268L24.7178 7.17451C24.177 5.9555 23.009 5.15687 21.7058 5.11261C17.2362 4.96246 12.7631 4.96246 8.29359 5.11261C6.99038 5.15687 5.82238 5.95544 5.2815 7.17451L4.07239 10.8712H3.87777C3.81896 10.8712 3.76256 10.8472 3.72097 10.8046C3.67939 10.7619 3.65602 10.704 3.65602 10.6436V9.91423C3.65606 9.86517 3.64163 9.81726 3.61463 9.77678C3.58763 9.7363 3.54932 9.70517 3.50475 9.68747C2.24553 9.18859 0.677399 9.81069 0.677399 10.7712C0.677399 11.4574 1.49708 12.0135 2.51379 12.0279H3.67614C1.54919 12.6166 0 14.6019 0 16.9529V20.7199C0 22.5007 1.39385 23.9497 3.1229 23.9676H26.8712C28.6061 23.9497 30 22.5007 30 20.7199V16.9469C30 15.5826 29.4765 14.3389 28.6179 13.4213ZM6.13088 7.52046C6.53619 6.64249 7.37234 6.08228 8.32341 6.0463C12.1271 5.91408 17.0618 5.88987 21.6766 6.0463C22.1266 6.06598 22.551 6.20351 22.9149 6.43288C23.3234 6.68512 23.6585 7.06185 23.8691 7.52052L25.2893 11.8546C25.2734 11.8546 25.2574 11.8513 25.2414 11.8513C16.1239 11.4661 5.3419 11.7255 4.71379 11.8546L6.13088 7.52046ZM6.73305 22.6275H2.36034C1.95585 22.6275 1.66671 22.2265 1.78358 21.8286L2.10507 20.7345C2.21118 20.3762 2.5342 20.1298 2.89869 20.1298H6.21475C6.60236 20.1298 6.93768 20.4061 7.02379 20.7929L7.27447 21.9328C7.35293 22.288 7.08831 22.6275 6.73305 22.6275ZM7.21465 16.9861C5.99901 18.0872 4.19514 18.3844 1.92168 18.0377C1.73982 18.0091 1.60801 17.8491 1.60801 17.6605V15.9327C1.60801 15.7137 1.78805 15.5383 1.99961 15.5517C3.96129 15.6698 5.78562 15.8641 7.09401 16.3385C7.36122 16.4356 7.42804 16.7937 7.21465 16.9861ZM21.1686 17.4281L19.8751 21.0901C19.7748 21.5168 19.4018 21.8178 18.9731 21.8178H11.0262C10.5975 21.8178 10.2245 21.5168 10.1243 21.0901L8.83071 17.4281C8.68967 16.828 9.13133 16.2508 9.73262 16.2508H20.2666C20.8679 16.2508 21.3097 16.828 21.1686 17.4281ZM27.6377 22.6275H23.265C22.9097 22.6275 22.6452 22.288 22.7237 21.9328L22.9743 20.7929C23.0604 20.4061 23.3958 20.1298 23.7834 20.1298H27.0994C27.4639 20.1298 27.7869 20.3761 27.893 20.7345L28.2145 21.8286C28.3314 22.2265 28.0422 22.6275 27.6377 22.6275ZM28.3914 17.6605C28.3914 17.8491 28.2596 18.0091 28.0777 18.0377C25.8043 18.3844 24.0003 18.0872 22.7848 16.9861C22.5714 16.7937 22.6382 16.4356 22.9054 16.3384C24.2138 15.864 26.0381 15.6698 27.9998 15.5516C28.2114 15.5383 28.3914 15.7135 28.3914 15.9326V17.6605ZM0.169159 23.1173V25.0435C0.169159 25.5742 0.587232 26.0001 1.10106 26.0001H4.07874C4.59257 26.0001 5.01065 25.5742 5.01065 25.0435V24.6242H3.12449C1.9245 24.6111 0.858556 24.0214 0.169159 23.1173Z" fill="#6F6F6F"/>
<path d="M26.8791 24.6231H24.9898V25.0425C24.9898 25.5732 25.4079 25.9991 25.9217 25.9991H28.8994C29.4132 25.9991 29.8313 25.5732 29.8313 25.0425V23.1129C29.1451 24.0204 28.0759 24.61 26.8791 24.6231ZM11.0429 20.8054L11.0497 20.8339H18.9505L18.9574 20.8054L20.2193 17.2326H9.78093L11.0429 20.8054ZM26.7248 15.8521C26.181 15.8521 25.7412 16.3036 25.7412 16.8617C25.7412 17.4199 26.181 17.8714 26.7248 17.8714C27.2686 17.8714 27.7084 17.4199 27.7084 16.8617C27.7084 16.3036 27.2686 15.8521 26.7248 15.8521ZM24.6304 16.1746C24.2603 16.1746 23.961 16.4819 23.961 16.8617C23.961 17.2416 24.2603 17.5489 24.6304 17.5489C25.0006 17.5489 25.2999 17.2416 25.2999 16.8617C25.2999 16.4819 25.0006 16.1746 24.6304 16.1746ZM3.27462 15.8516C2.73085 15.8516 2.29102 16.303 2.29102 16.8612C2.29102 17.4194 2.73085 17.8708 3.27462 17.8708C3.81844 17.8708 4.25822 17.4194 4.25822 16.8612C4.25822 16.303 3.81844 15.8516 3.27462 15.8516ZM5.36898 16.174C4.99891 16.174 4.69952 16.4813 4.69952 16.8612C4.69952 17.2411 4.99891 17.5484 5.36898 17.5484C5.73912 17.5484 6.03844 17.2411 6.03844 16.8612C6.03851 16.7709 6.02124 16.6815 5.98762 16.5981C5.95401 16.5147 5.9047 16.439 5.84252 16.3751C5.78034 16.3113 5.70651 16.2607 5.62526 16.2262C5.544 16.1917 5.45692 16.1739 5.36898 16.174Z" fill="#6F6F6F"/>
</svg>
