<svg width="30" height="30" fill="none" xmlns="http://www.w3.org/2000/svg"><g clip-path="url(#a)"><path d="M26.784.227a.801.801 0 0 0-1.134.016c-.66.68-3.986 4.224-4.57 7.27-.434 2.267.394 4.806 1.194 7.26.564 1.73 1.096 3.362 1.096 4.66 0 1.13-.481 1.741-.934 1.741-.407 0-.835-.53-.835-1.541 0-1.248.004-4.875-2.901-5.356V5.81c0-.443-.325-.752-.768-.752h-1.035v-.851c0-.443-.326-.751-.768-.751H8.015c-.442 0-.834.308-.834.75v.852h-.868c-.443 0-.835.31-.835.752v20.784h-1.67c-.442 0-.834.309-.834.752v1.803c0 .442.392.851.834.851h16.628c.443 0 .768-.409.768-.851v-1.803c0-.443-.325-.752-.768-.752H18.7V15.917c.6.224 1.298 1.004 1.298 3.716 0 2.16 1.263 3.144 2.43 3.144 1.26 0 2.54-1.149 2.54-3.345 0-1.551-.568-3.302-1.172-5.155-.416-1.277-.84-2.579-1.066-3.805 1.28-.276 2.13-.873 2.534-1.783.777-1.755-.524-3.892-.873-4.414A23.814 23.814 0 0 1 26.8 1.36a.8.8 0 0 0-.015-1.133zm-9.887 13.145a.801.801 0 0 1-.801.802H7.982a.801.801 0 0 1-.801-.802v-5.71a.801.801 0 0 1 .801-.8h8.114a.801.801 0 0 1 .8.8v5.71zm6.9-5.33c-.17.383-.584.659-1.232.824a5.452 5.452 0 0 1 .09-1.053c.114-.598.392-1.28.776-1.99.331.673.643 1.597.367 2.219z" fill="#6F6F6F"/></g><defs><clipPath id="a"><path fill="#fff" d="M0 0h30v30H0z"/></clipPath></defs></svg>