<svg width="30" height="30" viewBox="0 0 30 30" fill="none" xmlns="http://www.w3.org/2000/svg">
<g clip-path="url(#clip0_320_1634)">
<path d="M26.7835 0.226688C26.6311 0.0785848 26.4261 -0.00292515 26.2136 8.02562e-05C26.0011 0.00308566 25.7985 0.0903604 25.6503 0.242715C24.9895 0.92235 21.6636 4.46717 21.0806 7.51205C20.6463 9.78014 21.4739 12.3185 22.2743 14.7734C22.8378 16.5021 23.3701 18.1349 23.3701 19.4324C23.3701 20.5635 22.8886 21.174 22.4355 21.174C22.0289 21.174 21.6005 20.6446 21.6005 19.6327C21.6005 18.3845 21.6047 14.7584 18.6999 14.2771V5.80961C18.6999 5.36707 18.3745 5.05836 17.9319 5.05836H16.8969V4.20693C16.8969 3.7644 16.5714 3.45568 16.1289 3.45568H8.01535C7.57281 3.45568 7.18066 3.7644 7.18066 4.20693V5.05836H6.31251C5.86997 5.05836 5.47781 5.36707 5.47781 5.80961V26.5943H3.80833C3.36579 26.5943 2.97363 26.903 2.97363 27.3456V29.1486C2.97363 29.5911 3.36579 30 3.80833 30H20.4361C20.8786 30 21.2041 29.5911 21.2041 29.1486V27.3456C21.2041 26.903 20.8786 26.5943 20.4361 26.5943H18.6999V15.9174C19.3009 16.1414 19.9979 16.9207 19.9979 19.6328C19.9979 21.7928 21.2613 22.7767 22.4272 22.7767C23.6881 22.7767 24.9687 21.6281 24.9687 19.4325C24.9687 17.8805 24.4001 16.13 23.7959 14.2768C23.3796 12.9998 22.9565 11.6984 22.73 10.472C24.0091 10.1963 24.8609 9.59864 25.2636 8.68912C26.0405 6.93409 24.7395 4.79722 24.3911 4.27545C25.1171 3.23151 25.9766 2.20619 26.7993 1.35988C26.8727 1.28444 26.9305 1.19528 26.9694 1.0975C27.0083 0.999721 27.0276 0.895234 27.0261 0.790006C27.0246 0.684779 27.0025 0.580871 26.9608 0.484216C26.9192 0.387562 26.8589 0.300054 26.7835 0.226688ZM16.8969 13.3722C16.8969 13.5848 16.8125 13.7886 16.6622 13.9389C16.5119 14.0892 16.3081 14.1736 16.0955 14.1736H7.982C7.76947 14.1736 7.56565 14.0892 7.41536 13.9389C7.26508 13.7886 7.18066 13.5848 7.18066 13.3722V7.66271C7.18066 7.45018 7.26508 7.24636 7.41536 7.09607C7.56565 6.94579 7.76947 6.86137 7.982 6.86137H16.0955C16.3081 6.86137 16.5119 6.94579 16.6622 7.09607C16.8125 7.24636 16.8969 7.45018 16.8969 7.66271V13.3722ZM23.7978 8.04204C23.6275 8.42468 23.2132 8.70054 22.5648 8.86632C22.5628 8.50201 22.5904 8.14992 22.6547 7.81336C22.7693 7.21526 23.0474 6.53352 23.4308 5.82213C23.7621 6.49596 24.0745 7.4201 23.7978 8.04204Z" fill="#6F6F6F"/>
</g>
<defs>
<clipPath id="clip0_320_1634">
<rect width="30" height="30" fill="white"/>
</clipPath>
</defs>
</svg>
