<svg width="60" height="60" viewBox="0 0 60 60" fill="none" xmlns="http://www.w3.org/2000/svg">
<path d="M35.7422 30C35.7422 33.1714 33.1713 35.7422 30 35.7422C26.8287 35.7422 24.2578 33.1713 24.2578 30C24.2578 26.8287 26.8287 24.2578 30 24.2578C33.1713 24.2578 35.7422 26.8287 35.7422 30Z" fill="#ECECEC"/>
<path d="M43.4289 19.8399C43.1528 19.0916 42.7124 18.4148 42.1403 17.8591C41.5847 17.2868 40.9078 16.8465 40.1595 16.5705C39.5525 16.3348 38.6407 16.0541 36.9611 15.9777C35.1442 15.8949 34.5995 15.877 29.9999 15.877C25.3998 15.877 24.8552 15.8944 23.0388 15.9773C21.3592 16.0541 20.4468 16.3347 19.8404 16.5705C19.092 16.8464 18.4151 17.2867 17.8595 17.8591C17.2873 18.4148 16.8468 19.0916 16.5705 19.8399C16.3348 20.4469 16.0541 21.3592 15.9777 23.0387C15.8949 24.8552 15.877 25.3998 15.877 29.9999C15.877 34.5995 15.8949 35.1442 15.9777 36.9611C16.0541 38.6406 16.3348 39.5526 16.5705 40.1595C16.8467 40.9077 17.287 41.5846 17.8591 42.1403C18.4147 42.7125 19.0916 43.1529 19.8399 43.4289C20.4469 43.665 21.3592 43.9457 23.0388 44.0221C24.8552 44.105 25.3994 44.1224 29.9995 44.1224C34.6 44.1224 35.1447 44.105 36.9606 44.0221C38.6402 43.9457 39.5526 43.665 40.1595 43.4289C40.9025 43.1423 41.5772 42.7034 42.1403 42.1403C42.7034 41.5772 43.1423 40.9025 43.4289 40.1595C43.6646 39.5525 43.9452 38.6407 44.0221 36.9611C44.105 35.1442 44.1224 34.5995 44.1224 29.9999C44.1224 25.3998 44.105 24.8552 44.0221 23.0387C43.9457 21.3592 43.665 20.4468 43.4289 19.8399ZM29.9999 38.8453C25.1143 38.8453 21.1537 34.8851 21.1537 29.9995C21.1537 25.1138 25.1143 21.1537 29.9999 21.1537C34.8852 21.1537 38.8457 25.1138 38.8457 29.9995C38.8457 34.8851 34.8852 38.8453 29.9999 38.8453ZM39.1955 22.8712C38.0539 22.8712 37.1283 21.9455 37.1283 20.804C37.1283 19.6625 38.0539 18.7367 39.1955 18.7367C40.3371 18.7367 41.2627 19.6622 41.2627 20.8039C41.2622 21.9455 40.3371 22.8712 39.1955 22.8712Z" fill="#ECECEC"/>
<path d="M30 0C13.434 0 0 13.434 0 30C0 46.566 13.434 60 30 60C46.566 60 60 46.566 60 30C60 13.434 46.566 0 30 0ZM47.1226 37.1021C47.0394 38.936 46.7477 40.188 46.322 41.2839C45.8794 42.4282 45.2027 43.4675 44.3351 44.3351C43.4675 45.2027 42.4282 45.8794 41.2839 46.322C40.1884 46.7477 38.936 47.0388 37.1026 47.1226C35.2657 47.2064 34.6788 47.2266 30.0005 47.2266C25.3216 47.2266 24.7352 47.2064 22.8977 47.1226C21.0645 47.0388 19.8121 46.7477 18.7165 46.322C17.5669 45.8895 16.5255 45.2114 15.6652 44.3348C14.7889 43.4744 14.1109 42.4332 13.6785 41.2839C13.2527 40.1884 12.9612 38.936 12.8779 37.1026C12.7931 35.2651 12.7734 34.6784 12.7734 30C12.7734 25.3216 12.7931 24.7348 12.8774 22.8979C12.9606 21.064 13.2518 19.8121 13.6775 18.7161C14.1101 17.5666 14.7884 16.5254 15.665 15.6652C16.5253 14.7886 17.5666 14.1104 18.7161 13.678C19.8121 13.2523 21.064 12.9612 22.8979 12.8774C24.7348 12.7936 25.3216 12.7734 30 12.7734C34.6784 12.7734 35.2652 12.7936 37.1021 12.8777C38.936 12.9612 40.1879 13.2523 41.2839 13.6775C42.4335 14.1102 43.4749 14.7885 44.3354 15.665C45.2117 16.5254 45.8896 17.5667 46.322 18.7161C46.7482 19.8121 47.0393 21.064 47.1231 22.8979C47.2069 24.7348 47.2266 25.3216 47.2266 30C47.2266 34.6784 47.2069 35.2652 47.1226 37.1021Z" fill="#ECECEC"/>
</svg>
