<svg width="60" height="60" fill="none" xmlns="http://www.w3.org/2000/svg"><path d="M35.742 30a5.742 5.742 0 1 1-11.484 0 5.742 5.742 0 0 1 11.484 0z" fill="#ECECEC"/><path d="M43.429 19.84a5.337 5.337 0 0 0-1.289-1.98 5.333 5.333 0 0 0-1.98-1.29c-.607-.235-1.52-.516-3.199-.592-1.817-.083-2.361-.101-6.961-.101s-5.145.017-6.961.1c-1.68.077-2.592.358-3.199.593a5.33 5.33 0 0 0-1.98 1.29 5.34 5.34 0 0 0-1.29 1.98c-.235.607-.516 1.52-.592 3.199-.083 1.816-.101 2.36-.101 6.96s.018 5.145.1 6.962c.077 1.68.358 2.592.593 3.199a5.34 5.34 0 0 0 1.29 1.98 5.334 5.334 0 0 0 1.98 1.289c.607.236 1.52.517 3.199.593 1.816.083 2.36.1 6.96.1 4.601 0 5.146-.017 6.962-.1 1.68-.076 2.592-.357 3.199-.593a5.704 5.704 0 0 0 3.269-3.27c.236-.606.516-1.518.593-3.198.083-1.817.1-2.361.1-6.961s-.017-5.145-.1-6.961c-.076-1.68-.357-2.592-.593-3.2zm-13.43 19.005A8.846 8.846 0 1 1 38.847 30 8.846 8.846 0 0 1 30 38.845zm9.197-15.974a2.067 2.067 0 1 1 0-4.135 2.067 2.067 0 0 1 0 4.135z" fill="#ECECEC"/><path d="M30 0C13.434 0 0 13.434 0 30c0 16.566 13.434 30 30 30 16.566 0 30-13.434 30-30C60 13.434 46.566 0 30 0zm17.123 37.102c-.084 1.834-.375 3.086-.801 4.182a8.81 8.81 0 0 1-5.038 5.038c-1.096.426-2.348.717-4.181.8-1.837.084-2.424.105-7.103.105-4.678 0-5.265-.02-7.102-.104-1.834-.084-3.086-.375-4.181-.801a8.438 8.438 0 0 1-3.052-1.987 8.442 8.442 0 0 1-1.986-3.051c-.426-1.096-.718-2.348-.801-4.181-.085-1.838-.105-2.425-.105-7.103s.02-5.265.104-7.102c.084-1.834.375-3.086.8-4.182a8.439 8.439 0 0 1 1.988-3.05 8.437 8.437 0 0 1 3.051-1.988c1.096-.426 2.348-.717 4.182-.8 1.837-.084 2.424-.105 7.102-.105 4.678 0 5.265.02 7.102.105 1.834.083 3.086.374 4.182.8a8.445 8.445 0 0 1 3.051 1.987 8.441 8.441 0 0 1 1.987 3.051c.426 1.096.717 2.348.801 4.182.084 1.837.104 2.424.104 7.102 0 4.678-.02 5.265-.104 7.102z" fill="#ECECEC"/></svg>