<svg width="26" height="30" viewBox="0 0 26 30" fill="none" xmlns="http://www.w3.org/2000/svg">
<path d="M12.7366 14.0951C14.788 14.0951 16.5645 13.4052 18.016 12.044C19.4674 10.6831 20.2032 9.01792 20.2032 7.09422C20.2032 5.17108 19.4674 3.50573 18.0157 2.14434C16.564 0.783618 14.7878 0.09375 12.7366 0.09375C10.6849 0.09375 8.90884 0.783618 7.45742 2.14456C6.00599 3.50551 5.26993 5.17091 5.26993 7.09422C5.26993 9.01792 6.00593 10.6833 7.45766 12.0443C8.90939 13.405 10.6856 14.0951 12.7366 14.0951ZM25.8012 22.4442C25.7593 21.8779 25.6746 21.26 25.55 20.6077C25.4241 19.9503 25.2622 19.329 25.0682 18.7611C24.8679 18.1741 24.5954 17.5944 24.2587 17.0389C23.9091 16.4623 23.4985 15.9603 23.0378 15.5471C22.556 15.1149 21.9661 14.7675 21.284 14.5139C20.6043 14.2619 19.851 14.1341 19.0453 14.1341C18.7288 14.1341 18.4228 14.2558 17.8317 14.6167C17.4116 14.8732 16.9902 15.1279 16.5676 15.3808C16.1615 15.6234 15.6114 15.8507 14.9318 16.0565C14.2689 16.2577 13.5958 16.3597 12.9314 16.3597C12.2671 16.3597 11.5942 16.2577 10.9306 16.0565C10.2518 15.8509 9.7017 15.6237 9.29604 15.381C8.82559 15.0992 8.39995 14.8419 8.03073 14.6164C7.4404 14.2556 7.1341 14.1339 6.81768 14.1339C6.01162 14.1339 5.25861 14.2618 4.57909 14.5142C3.89746 14.7672 3.30737 15.1147 2.82512 15.5474C2.36466 15.9607 1.95385 16.4625 1.60474 17.0389C1.26822 17.5944 0.99576 18.1738 0.795169 18.7613C0.601419 19.3292 0.439457 19.9503 0.313641 20.6077C0.188976 21.2592 0.104331 21.8772 0.0624331 22.4449C0.0207541 23.0162 9.54457e-05 23.5887 0.000493937 24.1613C0.000493937 25.6786 0.514898 26.9069 1.5293 27.8127C2.53116 28.7067 3.85677 29.1602 5.46882 29.1602H20.3955C22.0076 29.1602 23.3327 28.7069 24.3348 27.8128C25.3494 26.9075 25.8638 25.679 25.8638 24.1611C25.8636 23.5754 25.8426 22.9977 25.8012 22.4442Z" fill="#F5F5F5"/>
</svg>
