<svg width="30" height="30" viewBox="0 0 30 30" fill="none" xmlns="http://www.w3.org/2000/svg">
<path d="M18.1854 8.52734H11.8187C10.0054 8.52734 8.52539 10.0007 8.52539 11.8207V18.1873C8.52539 20.0007 9.99872 21.4807 11.8187 21.4807H18.1854C19.9987 21.4807 21.4787 20.0073 21.4787 18.1873V11.8207C21.4721 10.0007 19.9987 8.52734 18.1854 8.52734ZM14.9987 19.2607C12.6521 19.2607 10.7387 17.3473 10.7387 15.0007C10.7387 12.654 12.6521 10.7407 14.9987 10.7407C17.3454 10.7407 19.2587 12.654 19.2587 15.0007C19.2587 17.3473 17.3454 19.2607 14.9987 19.2607ZM19.4721 11.214C19.0721 11.214 18.7521 10.894 18.7521 10.494C18.7521 10.094 19.0721 9.77401 19.4721 9.77401C19.8721 9.77401 20.1921 10.094 20.1921 10.494C20.1921 10.894 19.8721 11.214 19.4721 11.214Z" fill="white"/>
<path d="M17.5889 15.0305C17.6061 13.602 16.462 12.4301 15.0335 12.4129C13.6051 12.3957 12.4331 13.5397 12.4159 14.9682C12.3987 16.3967 13.5428 17.5686 14.9712 17.5858C16.3997 17.603 17.5717 16.459 17.5889 15.0305Z" fill="white"/>
<path d="M15 0C6.71333 0 0 6.71333 0 15C0 23.2867 6.71333 30 15 30C23.2867 30 30 23.2867 30 15C30 6.71333 23.2867 0 15 0ZM23.3333 18.1867C23.3333 21.0267 21.0267 23.3333 18.1867 23.3333H11.82C8.98 23.3333 6.67333 21.0267 6.67333 18.1867V11.82C6.67333 8.98 8.98 6.67333 11.82 6.67333H18.1867C21.0267 6.67333 23.3333 8.98 23.3333 11.82V18.1867Z" fill="white"/>
</svg>
