<svg width="58" height="58" viewBox="0 0 58 58" fill="none" xmlns="http://www.w3.org/2000/svg">
<path d="M29 58C44.9911 58 58 44.9911 58 29C58 13.0089 44.9911 0 29 0C13.0089 0 0 13.0089 0 29C0 44.9911 13.0089 58 29 58ZM20.0414 27.2914L32.1248 15.2081C32.3489 14.9834 32.6152 14.8052 32.9084 14.6836C33.2016 14.5621 33.516 14.4997 33.8334 14.5C34.1508 14.4997 34.4651 14.5621 34.7583 14.6837C35.0515 14.8052 35.3178 14.9834 35.542 15.2081C36.4869 16.153 36.4869 17.6804 35.542 18.6252L25.1671 29L35.5419 39.3748C36.4868 40.3196 36.4868 41.847 35.5419 42.7919C34.597 43.7368 33.0696 43.7368 32.1248 42.7919L20.0414 30.7085C19.0965 29.7636 19.0965 28.2364 20.0414 27.2914Z" fill="#181819"/>
</svg>
